<?xml version="1.0" encoding="utf-8"?>
<!-- Generated by Mocodo 4.2.4 -->
<svg width="573" height="279" viewBox="0 0 573 279" xmlns="http://www.w3.org/2000/svg">
<rect x="0" y="0" width="573" height="279" fill="#f7f7f7" stroke="none" stroke-width="0"/>

<!-- Association DF0 -->
<g class="page_0_04458b8a diagram_page" visibility="visible">
	<line x1="159" y1="85" x2="47" y2="85" stroke="#e08214" stroke-width="2"/>
	<line x1="47" y1="211" x2="47" y2="85" stroke="#e08214" stroke-width="2"/>
	<g>
		<circle cx="47" cy="85" r="16" stroke="#e08214" stroke-width="2" fill="#fdb863"/>
		<text x="38" y="89" fill="#000000" font-family="Verdana" font-size="12">DF</text>
	</g>
	<text x="96" y="102" fill="#542788" font-family="Verdana" font-size="12">1,1</text>
	<text x="52" y="144" fill="#542788" font-family="Verdana" font-size="12">0,N</text>
</g>

<!-- Association PARTICIPER -->
<g class="page_0_04458b8a diagram_page" visibility="visible">
	<line x1="159" y1="85" x2="272" y2="85" stroke="#e08214" stroke-width="2"/>
	<line x1="382" y1="85" x2="272" y2="85" stroke="#e08214" stroke-width="2"/>
	<line x1="272" y1="211" x2="272" y2="85" stroke="#e08214" stroke-width="2"/>
	<g>
		<path d="M302 60 a14 14 90 0 1 14 14 V85 h-88 V74 a14 14 90 0 1 14 -14" fill="#fdb863" stroke="#fdb863" stroke-width="0"/>
		<path d="M316 85 v11 a14 14 90 0 1 -14 14 H242 a14 14 90 0 1 -14 -14 V85 H88" fill="#fee0b6" stroke="#fee0b6" stroke-width="0"/>
		<rect x="228" y="60" width="88" height="50" fill="none" rx="14" stroke="#e08214" stroke-width="2"/>
		<line x1="228" y1="85" x2="316" y2="85" stroke="#e08214" stroke-width="1"/>
		<text x="235" y="77.75" fill="#000000" font-family="Verdana" font-size="12">PARTICIPER</text>
	</g>
	<text x="201" y="102" fill="#542788" font-family="Verdana" font-size="12" onmouseover="show_04458b8a(evt,'responsable')" onmouseout="hide_04458b8a(evt)" style="cursor: pointer;">0,N</text>
	<text x="321" y="102" fill="#542788" font-family="Verdana" font-size="12">1,N</text>
	<text x="277" y="169" fill="#542788" font-family="Verdana" font-size="12" onmouseover="show_04458b8a(evt,'responsable')" onmouseout="hide_04458b8a(evt)" style="cursor: pointer;">0,N</text>
</g>

<!-- Association DF1 -->
<g class="page_0_04458b8a diagram_page" visibility="visible">
	<line x1="382" y1="85" x2="464" y2="85" stroke="#e08214" stroke-width="2"/>
	<line x1="538" y1="85" x2="464" y2="85" stroke="#e08214" stroke-width="2"/>
	<g>
		<circle cx="464" cy="85" r="16" stroke="#e08214" stroke-width="2" fill="#fdb863"/>
		<text x="455" y="89" fill="#000000" font-family="Verdana" font-size="12">DF</text>
	</g>
	<text x="421" y="102" fill="#542788" font-family="Verdana" font-size="12">1,1</text>
	<text x="485" y="102" fill="#542788" font-family="Verdana" font-size="12">0,N</text>
</g>

<!-- Association COMPOSER -->
<g class="page_0_04458b8a diagram_page" visibility="visible">
	<line x1="159" y1="85" x2="159" y2="211" stroke="#e08214" stroke-width="2"/>
	<line x1="272" y1="211" x2="159" y2="211" stroke="#e08214" stroke-width="2"/>
	<g>
		<path d="M187 186 a14 14 90 0 1 14 14 V211 h-84 V200 a14 14 90 0 1 14 -14" fill="#fdb863" stroke="#fdb863" stroke-width="0"/>
		<path d="M201 211 v11 a14 14 90 0 1 -14 14 H131 a14 14 90 0 1 -14 -14 V211 H84" fill="#fee0b6" stroke="#fee0b6" stroke-width="0"/>
		<rect x="117" y="186" width="84" height="50" fill="none" rx="14" stroke="#e08214" stroke-width="2"/>
		<line x1="117" y1="211" x2="201" y2="211" stroke="#e08214" stroke-width="1"/>
		<text x="124" y="203.75" fill="#000000" font-family="Verdana" font-size="12">COMPOSER</text>
	</g>
	<text x="164" y="178" fill="#542788" font-family="Verdana" font-size="12">0,N</text>
	<text x="216" y="228" fill="#542788" font-family="Verdana" font-size="12">1,N</text>
</g>

<!-- Entity ATHLETE -->
<g class="page_0_04458b8a diagram_page" visibility="visible">
	<g>
		<rect x="122" y="9" width="74" height="25" fill="#b2abd2" stroke="none" stroke-width="0" opacity="1"/>
		<rect x="122" y="34" width="74" height="127" fill="#d8daeb" stroke="none" stroke-width="0" opacity="1"/>
		<rect x="122" y="9" width="74" height="152" fill="none" stroke="#8073ac" stroke-width="2" opacity="1"/>
		<line x1="122" y1="34" x2="196" y2="34" stroke="#8073ac" stroke-width="1"/>
	</g>
	<text x="132" y="26.75" fill="#000000" font-family="Verdana" font-size="12">ATHLETE</text>
	<text x="127" y="51.8" fill="#000000" font-family="Verdana" font-size="12">id_A</text>
	<line x1="127" y1="54" x2="155" y2="54" stroke="#000000" stroke-width="1"/>
	<text x="127" y="68.8" fill="#000000" font-family="Verdana" font-size="12">nom_A</text>
	<text x="127" y="85.8" fill="#000000" font-family="Verdana" font-size="12">prenom_A</text>
	<text x="127" y="102.8" fill="#000000" font-family="Verdana" font-size="12">sexe_A</text>
	<text x="127" y="119.8" fill="#000000" font-family="Verdana" font-size="12">force</text>
	<text x="127" y="136.8" fill="#000000" font-family="Verdana" font-size="12">agilite</text>
	<text x="127" y="153.8" fill="#000000" font-family="Verdana" font-size="12">endurance</text>
</g>

<!-- Entity EPREUVE -->
<g class="page_0_04458b8a diagram_page" visibility="visible">
	<g>
		<rect x="348" y="34" width="68" height="25" fill="#b2abd2" stroke="none" stroke-width="0" opacity="1"/>
		<rect x="348" y="59" width="68" height="77" fill="#d8daeb" stroke="none" stroke-width="0" opacity="1"/>
		<rect x="348" y="34" width="68" height="102" fill="none" stroke="#8073ac" stroke-width="2" opacity="1"/>
		<line x1="348" y1="59" x2="416" y2="59" stroke="#8073ac" stroke-width="1"/>
	</g>
	<text x="354" y="51.75" fill="#000000" font-family="Verdana" font-size="12">EPREUVE</text>
	<text x="353" y="76.8" fill="#000000" font-family="Verdana" font-size="12">id_Ep</text>
	<line x1="353" y1="79" x2="388" y2="79" stroke="#000000" stroke-width="1"/>
	<text x="353" y="93.8" fill="#000000" font-family="Verdana" font-size="12">nom</text>
	<text x="353" y="110.8" fill="#000000" font-family="Verdana" font-size="12">categorie</text>
	<text x="353" y="127.8" fill="#000000" font-family="Verdana" font-size="12">style</text>
</g>

<!-- Entity SPORT -->
<g class="page_0_04458b8a diagram_page" visibility="visible">
	<g>
		<rect x="512" y="43" width="52" height="25" fill="#b2abd2" stroke="none" stroke-width="0" opacity="1"/>
		<rect x="512" y="68" width="52" height="59" fill="#d8daeb" stroke="none" stroke-width="0" opacity="1"/>
		<rect x="512" y="43" width="52" height="84" fill="none" stroke="#8073ac" stroke-width="2" opacity="1"/>
		<line x1="512" y1="68" x2="564" y2="68" stroke="#8073ac" stroke-width="1"/>
	</g>
	<text x="517" y="60.75" fill="#000000" font-family="Verdana" font-size="12">SPORT</text>
	<text x="517" y="85.8" fill="#000000" font-family="Verdana" font-size="12">id_S</text>
	<line x1="517" y1="88" x2="545" y2="88" stroke="#000000" stroke-width="1"/>
	<text x="517" y="102.8" fill="#000000" font-family="Verdana" font-size="12">nom</text>
	<text x="517" y="119.8" fill="#000000" font-family="Verdana" font-size="12">milieu</text>
</g>

<!-- Entity PAYS -->
<g class="page_0_04458b8a diagram_page" visibility="visible">
	<g>
		<rect x="9" y="152" width="76" height="25" fill="#b2abd2" stroke="none" stroke-width="0" opacity="1"/>
		<rect x="9" y="177" width="76" height="93" fill="#d8daeb" stroke="none" stroke-width="0" opacity="1"/>
		<rect x="9" y="152" width="76" height="118" fill="none" stroke="#8073ac" stroke-width="2" opacity="1"/>
		<line x1="9" y1="177" x2="85" y2="177" stroke="#8073ac" stroke-width="1"/>
	</g>
	<text x="31" y="169.75" fill="#000000" font-family="Verdana" font-size="12">PAYS</text>
	<text x="14" y="194.8" fill="#000000" font-family="Verdana" font-size="12">id_P</text>
	<line x1="14" y1="197" x2="41" y2="197" stroke="#000000" stroke-width="1"/>
	<text x="14" y="211.8" fill="#000000" font-family="Verdana" font-size="12">nom_P</text>
	<text x="14" y="228.8" fill="#000000" font-family="Verdana" font-size="12">nb_Or</text>
	<text x="14" y="245.8" fill="#000000" font-family="Verdana" font-size="12">nb_Argent</text>
	<text x="14" y="262.8" fill="#000000" font-family="Verdana" font-size="12">nb_Bronze</text>
</g>

<!-- Entity EQUIPE -->
<g class="page_0_04458b8a diagram_page" visibility="visible">
	<g>
		<rect x="243" y="177" width="58" height="25" fill="#b2abd2" stroke="none" stroke-width="0" opacity="1"/>
		<rect x="243" y="202" width="58" height="43" fill="#d8daeb" stroke="none" stroke-width="0" opacity="1"/>
		<rect x="243" y="177" width="58" height="68" fill="none" stroke="#8073ac" stroke-width="2" opacity="1"/>
		<line x1="243" y1="202" x2="301" y2="202" stroke="#8073ac" stroke-width="1"/>
	</g>
	<text x="249" y="194.75" fill="#000000" font-family="Verdana" font-size="12">EQUIPE</text>
	<text x="248" y="219.8" fill="#000000" font-family="Verdana" font-size="12">id_E</text>
	<line x1="248" y1="222" x2="275" y2="222" stroke="#000000" stroke-width="1"/>
	<text x="248" y="236.8" fill="#000000" font-family="Verdana" font-size="12">nom_E</text>
</g>

<!-- Notes -->
<script type="text/ecmascript">
<![CDATA[
	function show_04458b8a(evt, text) {
		var pos = (evt.target.getAttribute("y") < 234) ? "bottom" : "top";
		var note = document.getElementById(pos + "_note_04458b8a");
		note.textContent = text;
		note.setAttributeNS(null, "visibility", "visible");
		document.getElementById(pos + "_overlay_04458b8a").setAttributeNS(null, "visibility", "visible");
	}
	function hide_04458b8a(evt) {
		document.getElementById("top_note_04458b8a").setAttributeNS(null, "visibility", "hidden");
		document.getElementById("top_overlay_04458b8a").setAttributeNS(null, "visibility", "hidden");
		document.getElementById("bottom_note_04458b8a").setAttributeNS(null, "visibility", "hidden");
		document.getElementById("bottom_overlay_04458b8a").setAttributeNS(null, "visibility", "hidden");
	}
]]>
</script>
<rect id="top_overlay_04458b8a" x="0" y="0" width="100%" height="40" fill="#b35806" stroke-width="0" opacity="0.9" visibility="hidden"/>
<text id="top_note_04458b8a" text-anchor="middle" x="286" y="24" fill="#f7f7f7" font-family="Verdana" font-size="14" visibility="hidden"></text>
<rect id="bottom_overlay_04458b8a" x="0" y="239" width="100%" height="40" fill="#b35806" stroke-width="0" opacity="0.9" visibility="hidden"/>
<text id="bottom_note_04458b8a" text-anchor="middle" x="286" y="263" fill="#f7f7f7" font-family="Verdana" font-size="14" visibility="hidden"></text>
</svg>