<?xml version="1.0" encoding="utf-8"?>
<!-- Generated by Mocodo 4.2.8 -->
<svg width="601" height="371" viewBox="0 0 601 371" xmlns="http://www.w3.org/2000/svg">
<rect x="0" y="0" width="601" height="371" fill="#f7f7f7" stroke="none" stroke-width="0"/>

<!-- Association DF0 -->
<g>
	<line x1="276" y1="160" x2="276" y2="51" stroke="#de77ae" stroke-width="2"/>
	<line x1="364" y1="51" x2="276" y2="51" stroke="#de77ae" stroke-width="2"/>
	<g>
		<circle cx="276" cy="51" r="16" stroke="#de77ae" stroke-width="2" fill="#f1b6da"/>
		<text x="267" y="55" fill="#000000" font-family="Verdana" font-size="12">DF</text>
	</g>
	<text x="281" y="110" fill="#4d9221" font-family="Verdana" font-size="12">1,1</text>
	<text x="311" y="68" fill="#4d9221" font-family="Verdana" font-size="12">0,N</text>
</g>

<!-- Association PARTICIPER -->
<g>
	<line x1="164" y1="286" x2="164" y2="160" stroke="#de77ae" stroke-width="2"/>
	<line x1="276" y1="160" x2="164" y2="160" stroke="#de77ae" stroke-width="2"/>
	<line x1="51" y1="160" x2="164" y2="160" stroke="#de77ae" stroke-width="2"/>
	<g>
		<path d="M194 135 a14 14 90 0 1 14 14 V160 h-88 V149 a14 14 90 0 1 14 -14" fill="#f1b6da" stroke="#f1b6da" stroke-width="0"/>
		<path d="M208 160 v11 a14 14 90 0 1 -14 14 H134 a14 14 90 0 1 -14 -14 V160 H88" fill="#fde0ef" stroke="#fde0ef" stroke-width="0"/>
		<rect x="120" y="135" width="88" height="50" fill="none" rx="14" stroke="#de77ae" stroke-width="2"/>
		<line x1="120" y1="160" x2="208" y2="160" stroke="#de77ae" stroke-width="1"/>
		<text x="127" y="152.75" fill="#000000" font-family="Verdana" font-size="12">PARTICIPER</text>
	</g>
	<text x="169" y="202" fill="#4d9221" font-family="Verdana" font-size="12">0,N</text>
	<text x="215" y="177" fill="#4d9221" font-family="Verdana" font-size="12">1,N</text>
	<text x="85" y="177" fill="#4d9221" font-family="Verdana" font-size="12">O,N</text>
</g>

<!-- Association COMPOSER -->
<g>
	<line x1="164" y1="286" x2="51" y2="286" stroke="#de77ae" stroke-width="2"/>
	<line x1="51" y1="160" x2="51" y2="286" stroke="#de77ae" stroke-width="2"/>
	<g>
		<path d="M79 261 a14 14 90 0 1 14 14 V286 h-84 V275 a14 14 90 0 1 14 -14" fill="#f1b6da" stroke="#f1b6da" stroke-width="0"/>
		<path d="M93 286 v11 a14 14 90 0 1 -14 14 H23 a14 14 90 0 1 -14 -14 V286 H84" fill="#fde0ef" stroke="#fde0ef" stroke-width="0"/>
		<rect x="9" y="261" width="84" height="50" fill="none" rx="14" stroke="#de77ae" stroke-width="2"/>
		<line x1="9" y1="286" x2="93" y2="286" stroke="#de77ae" stroke-width="1"/>
		<text x="16" y="278.75" fill="#000000" font-family="Verdana" font-size="12">COMPOSER</text>
	</g>
	<text x="98" y="303" fill="#4d9221" font-family="Verdana" font-size="12">O,N</text>
	<text x="56" y="219" fill="#4d9221" font-family="Verdana" font-size="12">1,N</text>
</g>

<!-- Association DF1 -->
<g>
	<line x1="364" y1="286" x2="276" y2="286" stroke="#de77ae" stroke-width="2"/>
	<line x1="164" y1="286" x2="276" y2="286" stroke="#de77ae" stroke-width="2"/>
	<g>
		<circle cx="276" cy="286" r="16" stroke="#de77ae" stroke-width="2" fill="#f1b6da"/>
		<text x="267" y="290" fill="#000000" font-family="Verdana" font-size="12">DF</text>
	</g>
	<text x="299" y="303" fill="#4d9221" font-family="Verdana" font-size="12">0,N</text>
	<text x="206" y="303" fill="#4d9221" font-family="Verdana" font-size="12">1,1</text>
</g>

<!-- Entity SPORT -->
<g>
	<g>
		<rect x="338" y="9" width="52" height="25" fill="#b8e186" stroke="none" stroke-width="0" opacity="1"/>
		<rect x="338" y="34" width="52" height="59" fill="#e6f5d0" stroke="none" stroke-width="0" opacity="1"/>
		<rect x="338" y="9" width="52" height="84" fill="none" stroke="#7fbc41" stroke-width="2" opacity="1"/>
		<line x1="338" y1="34" x2="390" y2="34" stroke="#7fbc41" stroke-width="1"/>
	</g>
	<text x="343" y="26.75" fill="#000000" font-family="Verdana" font-size="12">SPORT</text>
	<text x="343" y="51.8" fill="#000000" font-family="Verdana" font-size="12">id_S</text>
	<line x1="343" y1="54" x2="371" y2="54" stroke="#000000" stroke-width="1"/>
	<text x="343" y="68.8" fill="#000000" font-family="Verdana" font-size="12">nom</text>
	<text x="343" y="85.8" fill="#000000" font-family="Verdana" font-size="12">milieu</text>
</g>

<!-- Entity EQUIPE -->
<g>
	<g>
		<rect x="22" y="118" width="58" height="25" fill="#b8e186" stroke="none" stroke-width="0" opacity="1"/>
		<rect x="22" y="143" width="58" height="59" fill="#e6f5d0" stroke="none" stroke-width="0" opacity="1"/>
		<rect x="22" y="118" width="58" height="84" fill="none" stroke="#7fbc41" stroke-width="2" opacity="1"/>
		<line x1="22" y1="143" x2="80" y2="143" stroke="#7fbc41" stroke-width="1"/>
	</g>
	<text x="28" y="135.75" fill="#000000" font-family="Verdana" font-size="12">EQUIPE</text>
	<text x="27" y="160.8" fill="#000000" font-family="Verdana" font-size="12">id_E</text>
	<line x1="27" y1="163" x2="54" y2="163" stroke="#000000" stroke-width="1"/>
	<text x="27" y="177.8" fill="#000000" font-family="Verdana" font-size="12">nom_E</text>
	<text x="27" y="194.8" fill="#000000" font-family="Verdana" font-size="12">sexe_E</text>
</g>

<!-- Entity EPREUVE -->
<g>
	<g>
		<rect x="242" y="118" width="68" height="25" fill="#b8e186" stroke="none" stroke-width="0" opacity="1"/>
		<rect x="242" y="143" width="68" height="59" fill="#e6f5d0" stroke="none" stroke-width="0" opacity="1"/>
		<rect x="242" y="118" width="68" height="84" fill="none" stroke="#7fbc41" stroke-width="2" opacity="1"/>
		<line x1="242" y1="143" x2="310" y2="143" stroke="#7fbc41" stroke-width="1"/>
	</g>
	<text x="248" y="135.75" fill="#000000" font-family="Verdana" font-size="12">EPREUVE</text>
	<text x="247" y="160.8" fill="#000000" font-family="Verdana" font-size="12">id_Ep</text>
	<line x1="247" y1="163" x2="282" y2="163" stroke="#000000" stroke-width="1"/>
	<text x="247" y="177.8" fill="#000000" font-family="Verdana" font-size="12">nom</text>
	<text x="247" y="194.8" fill="#000000" font-family="Verdana" font-size="12">categorie</text>
</g>

<!-- Entity ATHLETE -->
<g>
	<g>
		<rect x="127" y="210" width="74" height="25" fill="#b8e186" stroke="none" stroke-width="0" opacity="1"/>
		<rect x="127" y="235" width="74" height="127" fill="#e6f5d0" stroke="none" stroke-width="0" opacity="1"/>
		<rect x="127" y="210" width="74" height="152" fill="none" stroke="#7fbc41" stroke-width="2" opacity="1"/>
		<line x1="127" y1="235" x2="201" y2="235" stroke="#7fbc41" stroke-width="1"/>
	</g>
	<text x="137" y="227.75" fill="#000000" font-family="Verdana" font-size="12">ATHLETE</text>
	<text x="132" y="252.8" fill="#000000" font-family="Verdana" font-size="12">id_A</text>
	<line x1="132" y1="255" x2="160" y2="255" stroke="#000000" stroke-width="1"/>
	<text x="132" y="269.8" fill="#000000" font-family="Verdana" font-size="12">nom_A</text>
	<text x="132" y="286.8" fill="#000000" font-family="Verdana" font-size="12">prenom_A</text>
	<text x="132" y="303.8" fill="#000000" font-family="Verdana" font-size="12">sexe_A</text>
	<text x="132" y="320.8" fill="#000000" font-family="Verdana" font-size="12">force_A</text>
	<text x="132" y="337.8" fill="#000000" font-family="Verdana" font-size="12">endurance</text>
	<text x="132" y="354.8" fill="#000000" font-family="Verdana" font-size="12">agilite</text>
</g>

<!-- Entity PAYS -->
<g>
	<g>
		<rect x="326" y="227" width="76" height="25" fill="#b8e186" stroke="none" stroke-width="0" opacity="1"/>
		<rect x="326" y="252" width="76" height="93" fill="#e6f5d0" stroke="none" stroke-width="0" opacity="1"/>
		<rect x="326" y="227" width="76" height="118" fill="none" stroke="#7fbc41" stroke-width="2" opacity="1"/>
		<line x1="326" y1="252" x2="402" y2="252" stroke="#7fbc41" stroke-width="1"/>
	</g>
	<text x="348" y="244.75" fill="#000000" font-family="Verdana" font-size="12">PAYS</text>
	<text x="331" y="269.8" fill="#000000" font-family="Verdana" font-size="12">id_P</text>
	<line x1="331" y1="272" x2="358" y2="272" stroke="#000000" stroke-width="1"/>
	<text x="331" y="286.8" fill="#000000" font-family="Verdana" font-size="12">nom_P</text>
	<text x="331" y="303.8" fill="#000000" font-family="Verdana" font-size="12">nb_Or</text>
	<text x="331" y="320.8" fill="#000000" font-family="Verdana" font-size="12">nb_Argent</text>
	<text x="331" y="337.8" fill="#000000" font-family="Verdana" font-size="12">nb_Bronze</text>
</g>

<!-- Entity USER -->
<g>
	<g>
		<rect x="538" y="244" width="54" height="25" fill="#b8e186" stroke="none" stroke-width="0" opacity="1"/>
		<rect x="538" y="269" width="54" height="59" fill="#e6f5d0" stroke="none" stroke-width="0" opacity="1"/>
		<rect x="538" y="244" width="54" height="84" fill="none" stroke="#7fbc41" stroke-width="2" opacity="1"/>
		<line x1="538" y1="269" x2="592" y2="269" stroke="#7fbc41" stroke-width="1"/>
	</g>
	<text x="548" y="261.75" fill="#000000" font-family="Verdana" font-size="12">USER</text>
	<text x="543" y="286.8" fill="#000000" font-family="Verdana" font-size="12">nom_U</text>
	<line x1="543" y1="289" x2="587" y2="289" stroke="#000000" stroke-width="1"/>
	<text x="543" y="303.8" fill="#000000" font-family="Verdana" font-size="12">mdp_U</text>
	<text x="543" y="320.8" fill="#000000" font-family="Verdana" font-size="12">role_U</text>
</g>
</svg>