<?xml version="1.0" encoding="utf-8"?>
<!-- Generated by Mocodo 4.2.4 -->
<svg width="593" height="296" viewBox="0 0 593 296" xmlns="http://www.w3.org/2000/svg">
<rect x="0" y="0" width="593" height="296" fill="#ffffbf" stroke="none" stroke-width="0"/>

<!-- Association PARTICIPEREQUIPE -->
<g>
	<line x1="262" y1="43" x2="134" y2="43" stroke="#f46d43" stroke-width="2"/>
	<line x1="134" y1="144" x2="134" y2="43" stroke="#f46d43" stroke-width="2"/>
	<g>
		<path d="M187 18 a14 14 90 0 1 14 14 V43 h-134 V32 a14 14 90 0 1 14 -14" fill="#fdae61" stroke="#fdae61" stroke-width="0"/>
		<path d="M201 43 v11 a14 14 90 0 1 -14 14 H81 a14 14 90 0 1 -14 -14 V43 H134" fill="#fee090" stroke="#fee090" stroke-width="0"/>
		<rect x="67" y="18" width="134" height="50" fill="none" rx="14" stroke="#f46d43" stroke-width="2"/>
		<line x1="67" y1="43" x2="201" y2="43" stroke="#f46d43" stroke-width="1"/>
		<text x="74" y="35.75" fill="#000000" font-family="Verdana" font-size="12">PARTICIPEREQUIPE</text>
	</g>
	<text x="206" y="60" fill="#4575b4" font-family="Verdana" font-size="12">0,N</text>
	<text x="139" y="85" fill="#4575b4" font-family="Verdana" font-size="12">1,N</text>
</g>

<!-- Association DF0 -->
<g>
	<line x1="134" y1="144" x2="35" y2="144" stroke="#f46d43" stroke-width="2"/>
	<line x1="35" y1="245" x2="35" y2="144" stroke="#f46d43" stroke-width="2"/>
	<g>
		<circle cx="35" cy="144" r="16" stroke="#f46d43" stroke-width="2" fill="#fdae61"/>
		<text x="26" y="148" fill="#000000" font-family="Verdana" font-size="12">DF</text>
	</g>
	<text x="74" y="161" fill="#4575b4" font-family="Verdana" font-size="12">1,1</text>
	<text x="40" y="195" fill="#4575b4" font-family="Verdana" font-size="12">0,N</text>
</g>

<!-- Association PARTICIPER -->
<g>
	<line x1="375" y1="144" x2="262" y2="144" stroke="#f46d43" stroke-width="2"/>
	<line x1="134" y1="144" x2="262" y2="144" stroke="#f46d43" stroke-width="2"/>
	<g>
		<path d="M292 119 a14 14 90 0 1 14 14 V144 h-88 V133 a14 14 90 0 1 14 -14" fill="#fdae61" stroke="#fdae61" stroke-width="0"/>
		<path d="M306 144 v11 a14 14 90 0 1 -14 14 H232 a14 14 90 0 1 -14 -14 V144 H88" fill="#fee090" stroke="#fee090" stroke-width="0"/>
		<rect x="218" y="119" width="88" height="50" fill="none" rx="14" stroke="#f46d43" stroke-width="2"/>
		<line x1="218" y1="144" x2="306" y2="144" stroke="#f46d43" stroke-width="1"/>
		<text x="225" y="136.75" fill="#000000" font-family="Verdana" font-size="12">PARTICIPER</text>
	</g>
	<text x="311" y="161" fill="#4575b4" font-family="Verdana" font-size="12">0,N</text>
	<text x="173" y="161" fill="#4575b4" font-family="Verdana" font-size="12">1,N</text>
</g>

<!-- Association DF1 -->
<g>
	<line x1="375" y1="144" x2="460" y2="144" stroke="#f46d43" stroke-width="2"/>
	<line x1="546" y1="144" x2="460" y2="144" stroke="#f46d43" stroke-width="2"/>
	<g>
		<circle cx="460" cy="144" r="16" stroke="#f46d43" stroke-width="2" fill="#fdae61"/>
		<text x="451" y="148" fill="#000000" font-family="Verdana" font-size="12">DF</text>
	</g>
	<text x="417" y="161" fill="#4575b4" font-family="Verdana" font-size="12">1,1</text>
	<text x="481" y="161" fill="#4575b4" font-family="Verdana" font-size="12">0,N</text>
</g>

<!-- Entity EQUIPE -->
<g>
	<g>
		<rect x="233" y="9" width="58" height="25" fill="#abd9e9" stroke="none" stroke-width="0" opacity="1"/>
		<rect x="233" y="34" width="58" height="43" fill="#e0f3f8" stroke="none" stroke-width="0" opacity="1"/>
		<rect x="233" y="9" width="58" height="68" fill="none" stroke="#74add1" stroke-width="2" opacity="1"/>
		<line x1="233" y1="34" x2="291" y2="34" stroke="#74add1" stroke-width="1"/>
	</g>
	<text x="239" y="26.75" fill="#000000" font-family="Verdana" font-size="12">EQUIPE</text>
	<text x="238" y="51.8" fill="#000000" font-family="Verdana" font-size="12">id_E</text>
	<line x1="238" y1="54" x2="265" y2="54" stroke="#000000" stroke-width="1"/>
	<text x="238" y="68.8" fill="#000000" font-family="Verdana" font-size="12">nom_E</text>
</g>

<!-- Entity EPREUVE -->
<g>
	<g>
		<rect x="100" y="93" width="68" height="25" fill="#abd9e9" stroke="none" stroke-width="0" opacity="1"/>
		<rect x="100" y="118" width="68" height="77" fill="#e0f3f8" stroke="none" stroke-width="0" opacity="1"/>
		<rect x="100" y="93" width="68" height="102" fill="none" stroke="#74add1" stroke-width="2" opacity="1"/>
		<line x1="100" y1="118" x2="168" y2="118" stroke="#74add1" stroke-width="1"/>
	</g>
	<text x="106" y="110.75" fill="#000000" font-family="Verdana" font-size="12">EPREUVE</text>
	<text x="105" y="135.8" fill="#000000" font-family="Verdana" font-size="12">id_Ep</text>
	<line x1="105" y1="138" x2="140" y2="138" stroke="#000000" stroke-width="1"/>
	<text x="105" y="152.8" fill="#000000" font-family="Verdana" font-size="12">nom</text>
	<text x="105" y="169.8" fill="#000000" font-family="Verdana" font-size="12">categorie</text>
	<text x="105" y="186.8" fill="#000000" font-family="Verdana" font-size="12">style</text>
</g>

<!-- Entity ATHLETE -->
<g>
	<g>
		<rect x="338" y="68" width="74" height="25" fill="#abd9e9" stroke="none" stroke-width="0" opacity="1"/>
		<rect x="338" y="93" width="74" height="127" fill="#e0f3f8" stroke="none" stroke-width="0" opacity="1"/>
		<rect x="338" y="68" width="74" height="152" fill="none" stroke="#74add1" stroke-width="2" opacity="1"/>
		<line x1="338" y1="93" x2="412" y2="93" stroke="#74add1" stroke-width="1"/>
	</g>
	<text x="348" y="85.75" fill="#000000" font-family="Verdana" font-size="12">ATHLETE</text>
	<text x="343" y="110.8" fill="#000000" font-family="Verdana" font-size="12">id_A</text>
	<line x1="343" y1="113" x2="371" y2="113" stroke="#000000" stroke-width="1"/>
	<text x="343" y="127.8" fill="#000000" font-family="Verdana" font-size="12">nom_A</text>
	<text x="343" y="144.8" fill="#000000" font-family="Verdana" font-size="12">prenom_A</text>
	<text x="343" y="161.8" fill="#000000" font-family="Verdana" font-size="12">sexe_A</text>
	<text x="343" y="178.8" fill="#000000" font-family="Verdana" font-size="12">force</text>
	<text x="343" y="195.8" fill="#000000" font-family="Verdana" font-size="12">agilite</text>
	<text x="343" y="212.8" fill="#000000" font-family="Verdana" font-size="12">endurance</text>
</g>

<!-- Entity PAYS -->
<g>
	<g>
		<rect x="508" y="85" width="76" height="25" fill="#abd9e9" stroke="none" stroke-width="0" opacity="1"/>
		<rect x="508" y="110" width="76" height="93" fill="#e0f3f8" stroke="none" stroke-width="0" opacity="1"/>
		<rect x="508" y="85" width="76" height="118" fill="none" stroke="#74add1" stroke-width="2" opacity="1"/>
		<line x1="508" y1="110" x2="584" y2="110" stroke="#74add1" stroke-width="1"/>
	</g>
	<text x="530" y="102.75" fill="#000000" font-family="Verdana" font-size="12">PAYS</text>
	<text x="513" y="127.8" fill="#000000" font-family="Verdana" font-size="12">id_P</text>
	<line x1="513" y1="130" x2="540" y2="130" stroke="#000000" stroke-width="1"/>
	<text x="513" y="144.8" fill="#000000" font-family="Verdana" font-size="12">nom_P</text>
	<text x="513" y="161.8" fill="#000000" font-family="Verdana" font-size="12">nb_Or</text>
	<text x="513" y="178.8" fill="#000000" font-family="Verdana" font-size="12">nb_Argent</text>
	<text x="513" y="195.8" fill="#000000" font-family="Verdana" font-size="12">nb_Bronze</text>
</g>

<!-- Entity SPORT -->
<g>
	<g>
		<rect x="9" y="203" width="52" height="25" fill="#abd9e9" stroke="none" stroke-width="0" opacity="1"/>
		<rect x="9" y="228" width="52" height="59" fill="#e0f3f8" stroke="none" stroke-width="0" opacity="1"/>
		<rect x="9" y="203" width="52" height="84" fill="none" stroke="#74add1" stroke-width="2" opacity="1"/>
		<line x1="9" y1="228" x2="61" y2="228" stroke="#74add1" stroke-width="1"/>
	</g>
	<text x="14" y="220.75" fill="#000000" font-family="Verdana" font-size="12">SPORT</text>
	<text x="14" y="245.8" fill="#000000" font-family="Verdana" font-size="12">id_S</text>
	<line x1="14" y1="248" x2="42" y2="248" stroke="#000000" stroke-width="1"/>
	<text x="14" y="262.8" fill="#000000" font-family="Verdana" font-size="12">nom</text>
	<text x="14" y="279.8" fill="#000000" font-family="Verdana" font-size="12">milieu</text>
</g>
</svg>